/* XPM */
static char * pyalarm_xpm[] = {
"32 32 408 2",
"  	c None",
". 	c #484A48",
"+ 	c #797C78",
"@ 	c #9FA09D",
"# 	c #B3B5B2",
"$ 	c #BABBB9",
"% 	c #B8BAB7",
"& 	c #ADAEAC",
"* 	c #959794",
"= 	c #6F706F",
"- 	c #434743",
"; 	c #696B67",
"> 	c #939592",
", 	c #DEDFDB",
"' 	c #CED1CC",
") 	c #ADB0AC",
"! 	c #979C97",
"~ 	c #8B908A",
"{ 	c #878B87",
"] 	c #8D908C",
"^ 	c #9B9E9A",
"/ 	c #B6B8B5",
"( 	c #BFC1BE",
"_ 	c #7F827F",
": 	c #5B5E5B",
"< 	c #404340",
"[ 	c #ABADAA",
"} 	c #D8DAD5",
"| 	c #C2C6BF",
"1 	c #5F6464",
"2 	c #636A67",
"3 	c #9FA49F",
"4 	c #A9AFA7",
"5 	c #A7ADA5",
"6 	c #AAAFA8",
"7 	c #9FA39E",
"8 	c #5F6462",
"9 	c #535857",
"0 	c #91948F",
"a 	c #A9ABA7",
"b 	c #898C89",
"c 	c #3D3F3F",
"d 	c #5D5F5C",
"e 	c #D0D2CE",
"f 	c #D2D6D0",
"g 	c #858A86",
"h 	c #5B605F",
"i 	c #C9CDC5",
"j 	c #DBDFD6",
"k 	c #E0E3DD",
"l 	c #E6E8E3",
"m 	c #E9EBE7",
"n 	c #E6E8E4",
"o 	c #E0E4DD",
"p 	c #DBDFD7",
"q 	c #C9CFC6",
"r 	c #636866",
"s 	c #666B67",
"t 	c #979995",
"u 	c #9EA09D",
"v 	c #4E5250",
"w 	c #DBDDD9",
"x 	c #BEC2BC",
"y 	c #565C5C",
"z 	c #B3B9B1",
"A 	c #E1E3DD",
"B 	c #E8EAE6",
"C 	c #E9EBE8",
"D 	c #E7EAE5",
"E 	c #E2E5DE",
"F 	c #B5BBB2",
"G 	c #525856",
"H 	c #7E7F7C",
"I 	c #A3A4A1",
"J 	c #484D4B",
"K 	c #D0D1CE",
"L 	c #B4B8B2",
"M 	c #59605F",
"N 	c #DCE1D7",
"O 	c #E5E8E1",
"P 	c #EAEBE8",
"Q 	c #EAECE8",
"R 	c #EBEDE9",
"S 	c #E8EBE6",
"T 	c #E0E4DB",
"U 	c #5D615F",
"V 	c #747673",
"W 	c #9A9A98",
"X 	c #454745",
"Y 	c #A8AAA7",
"Z 	c #C5C9C2",
"` 	c #545B59",
" .	c #CED3CA",
"..	c #EBECE9",
"+.	c #EBEDEA",
"@.	c #ECEDEA",
"#.	c #ECEEEA",
"$.	c #E9ECE8",
"%.	c #E3E6E1",
"&.	c #D4D9D1",
"*.	c #575C5B",
"=.	c #7D7F7A",
"-.	c #797B79",
";.	c #383D3C",
">.	c #727573",
",.	c #D9DAD6",
"'.	c #575D5C",
").	c #D0D5CC",
"!.	c #E5E8E3",
"~.	c #ECEEEB",
"{.	c #EDEEEB",
"].	c #EFF0ED",
"^.	c #D9DBD8",
"/.	c #A0A1A0",
"(.	c #D9DCD5",
"_.	c #4D5250",
":.	c #949692",
"<.	c #555858",
"[.	c #BABCB9",
"}.	c #979C96",
"|.	c #9FA49D",
"1.	c #E0E3DC",
"2.	c #EAECE9",
"3.	c #EDEFEC",
"4.	c #EEF0EC",
"5.	c #EEF0ED",
"6.	c #F0F1EE",
"7.	c #D3D4D2",
"8.	c #808281",
"9.	c #E8EAE7",
"0.	c #E5E9E4",
"a.	c #AAAEA8",
"b.	c #5F615E",
"c.	c #858785",
"d.	c #5E615F",
"e.	c #C2C4BF",
"f.	c #6C716F",
"g.	c #CBD0C8",
"h.	c #EBECE8",
"i.	c #EFF1EE",
"j.	c #F1F3F0",
"k.	c #D1D2D0",
"l.	c #434343",
"m.	c #D2D4D1",
"n.	c #DEDFDD",
"o.	c #EFF0EE",
"p.	c #D5DAD4",
"q.	c #616562",
"r.	c #7C7E7A",
"s.	c #444949",
"t.	c #787A79",
"u.	c #A7AAA5",
"v.	c #686E6C",
"w.	c #E5E8E2",
"x.	c #EDEEEA",
"y.	c #F0F1EF",
"z.	c #F1F2EF",
"A.	c #F1F2F0",
"B.	c #F6F7F4",
"C.	c #C5C7C5",
"D.	c #1C1C1C",
"E.	c #BABCBA",
"F.	c #F2F3F0",
"G.	c #777B77",
"H.	c #686A66",
"I.	c #555959",
"J.	c #3F4241",
"K.	c #737773",
"L.	c #BDC2BB",
"M.	c #EEEFEC",
"N.	c #DFE1DE",
"O.	c #F2F4F1",
"P.	c #F3F4F2",
"Q.	c #B8B9B7",
"R.	c #222122",
"S.	c #939493",
"T.	c #CECECD",
"U.	c #F2F3F1",
"V.	c #C8CBC7",
"W.	c #515451",
"X.	c #6E706E",
"Y.	c #2F3436",
"Z.	c #3D4040",
"`.	c #BBBDB9",
" +	c #535958",
".+	c #DEE2DA",
"++	c #EDEFEB",
"@+	c #EEEFED",
"#+	c #F0F2EE",
"$+	c #D4D5D3",
"%+	c #545454",
"&+	c #A8A9A8",
"*+	c #212121",
"=+	c #484848",
"-+	c #C8C8C7",
";+	c #F4F5F3",
">+	c #F3F4F1",
",+	c #EAEDE8",
"'+	c #494C4A",
")+	c #787976",
"!+	c #303436",
"~+	c #353A39",
"{+	c #C2C4C0",
"]+	c #424646",
"^+	c #E6E9E2",
"/+	c #F7F8F6",
"(+	c #686867",
"_+	c #484747",
":+	c #313131",
"<+	c #242424",
"[+	c #CECFCD",
"}+	c #EDEEEC",
"|+	c #F5F6F4",
"1+	c #F2F5F0",
"2+	c #3F4240",
"3+	c #2C3234",
"4+	c #353939",
"5+	c #BEC0BC",
"6+	c #3F4444",
"7+	c #E8EBE5",
"8+	c #F5F6F3",
"9+	c #C3C4C3",
"0+	c #787A7A",
"a+	c #4A4D4D",
"b+	c #888887",
"c+	c #E5E6E4",
"d+	c #F6F7F5",
"e+	c #F5F7F3",
"f+	c #3D4240",
"g+	c #7B7C79",
"h+	c #2A3031",
"i+	c #343838",
"j+	c #B4B6B1",
"k+	c #424847",
"l+	c #EAEDE6",
"m+	c #FBFCFA",
"n+	c #4C4C4B",
"o+	c #282828",
"p+	c #1A1A1A",
"q+	c #181919",
"r+	c #DFDFDE",
"s+	c #FAFBF9",
"t+	c #F8F8F7",
"u+	c #F7F7F6",
"v+	c #F6F6F5",
"w+	c #F7F8F4",
"x+	c #414543",
"y+	c #767774",
"z+	c #292F32",
"A+	c #353A3A",
"B+	c #A0A29E",
"C+	c #545956",
"D+	c #E2E5DF",
"E+	c #EBEEEA",
"F+	c #ADADAC",
"G+	c #AEAEAE",
"H+	c #C4C5C4",
"I+	c #BFBFBE",
"J+	c #414241",
"K+	c #2B2B2B",
"L+	c #F0F0EF",
"M+	c #F9F9F8",
"N+	c #F8F9F8",
"O+	c #4A4D4B",
"P+	c #6A6C69",
"Q+	c #2B3032",
"R+	c #2F3535",
"S+	c #818381",
"T+	c #686A68",
"U+	c #B0B3AF",
"V+	c #FDFEFC",
"W+	c #D9DAD8",
"X+	c #ECEDEB",
"Y+	c #E0E1E0",
"Z+	c #6E6E6E",
"`+	c #FEFFFF",
" @	c #FAFAFA",
".@	c #F5F7F4",
"+@	c #BABDBA",
"@@	c #4F514E",
"#@	c #585C5B",
"$@	c #252A2C",
"%@	c #555857",
"&@	c #838580",
"*@	c #686C6B",
"=@	c #F5F6F5",
"-@	c #FAFAF9",
";@	c #FBFBFA",
">@	c #FAFBFA",
",@	c #E6E7E6",
"'@	c #A4A5A4",
")@	c #8B8B8B",
"!@	c #747774",
"~@	c #5D5F5B",
"{@	c #3F4445",
"]@	c #444748",
"^@	c #8A8C89",
"/@	c #606461",
"(@	c #D8DBD6",
"_@	c #FBFBFB",
":@	c #FDFDFC",
"<@	c #FFFFFF",
"[@	c #EAEAEA",
"}@	c #DEDEDE",
"|@	c #F0F1F0",
"1@	c #E3E5E3",
"2@	c #5A5C5A",
"3@	c #636662",
"4@	c #353A3B",
"5@	c #7A7D7B",
"6@	c #8C908F",
"7@	c #F3F5F2",
"8@	c #FBFCFB",
"9@	c #FDFDFD",
"0@	c #FEFEFE",
"a@	c #F7F7F7",
"b@	c #F7F8F7",
"c@	c #F8F9F7",
"d@	c #FEFFFD",
"e@	c #949794",
"f@	c #575A55",
"g@	c #595C5A",
"h@	c #363B3D",
"i@	c #8C8E8A",
"j@	c #464A48",
"k@	c #C8CCC9",
"l@	c #FDFEFD",
"m@	c #FEFEFD",
"n@	c #FCFCFC",
"o@	c #474947",
"p@	c #6A6B68",
"q@	c #2F3537",
"r@	c #4B5050",
"s@	c #71736F",
"t@	c #505352",
"u@	c #E0E2DF",
"v@	c #FCFCFB",
"w@	c #FAFBFB",
"x@	c #F9FAF9",
"y@	c #E9EAE9",
"z@	c #545654",
"A@	c #5F615D",
"B@	c #3F4544",
"C@	c #676A69",
"D@	c #666864",
"E@	c #424645",
"F@	c #DCDEDC",
"G@	c #F6F7F6",
"H@	c #E4E5E4",
"I@	c #494C49",
"J@	c #5C5E5A",
"K@	c #545756",
"L@	c #2B3133",
"M@	c #5C5E5D",
"N@	c #666865",
"O@	c #4D504E",
"P@	c #939695",
"Q@	c #F9FAF8",
"R@	c #999B9A",
"S@	c #525552",
"T@	c #5E605C",
"U@	c #4D5150",
"V@	c #2B3132",
"W@	c #292E30",
"X@	c #5C5F5E",
"Y@	c #6B6D69",
"Z@	c #525551",
"`@	c #4B4F4D",
" #	c #C1C2C1",
".#	c #E2E3E2",
"+#	c #FCFDFC",
"@#	c #FCFDFB",
"##	c #E4E5E5",
"$#	c #515452",
"%#	c #525450",
"&#	c #60615E",
"*#	c #4D514F",
"=#	c #272E2F",
"-#	c #383E3E",
";#	c #616362",
">#	c #6D6E6B",
",#	c #535551",
"'#	c #535553",
")#	c #6A6E6C",
"!#	c #707472",
"~#	c #6C6E6E",
"{#	c #6C6F6E",
"]#	c #737574",
"^#	c #6C706D",
"/#	c #555654",
"(#	c #646661",
"_#	c #555756",
":#	c #353B3B",
"<#	c #292D2F",
"[#	c #3C4243",
"}#	c #5D605F",
"|#	c #626462",
"1#	c #5C5E59",
"2#	c #5B5D59",
"3#	c #5D5E5C",
"4#	c #555957",
"5#	c #383D3F",
"6#	c #292F31",
"7#	c #35393A",
"8#	c #3A3F3F",
"9#	c #3A3F40",
"0#	c #3A3E3E",
"a#	c #343839",
"                                                                ",
"                      . + @ # $ % & * = -                       ",
"                  ; > , ' ) ! ~ { ] ^ / ( _ :                   ",
"              < [ } | 1 2 3 4 5 5 6 7 8 9 0 a b c               ",
"            d e f g h i j k l m m n o p q r s t u v             ",
"          : w x y z A l B B B m m m m C D E F G H I J           ",
"          K L M N O B B B m m P Q Q Q Q Q R S T U V W           ",
"      X Y Z `  .n B m C Q ..R +.@.#.#.#.#.@.$.%.&.*.=.-.;.      ",
"      >.,.'.).!.B m m Q R +.@.~.~.{.{.{.].^./.#...(._.:.<.      ",
"      [.}.|.1.m m 2.R #.~.3.3.4.5.].].6.7.8.9...3.0.a.b.c.      ",
"    d.e.f.g.2.m h.R @.{.3.4.5.].i.i.j.k.l.m.n.i.5.o.p.q.r.s.    ",
"    t.u.v.w.m ..+.x.3.5.].6.y.z.A.B.C.D.E.n.F.y.6.].{.G.H.I.    ",
"  J.a K.L.D 2.R x.3.M.o.z.N.A.O.P.Q.R.S.T.U.F.A.z.6.5.V.W.X.Y.  ",
"  Z.`. +.+m R ~.++@+i.#+U.$+%+o.&+*+=+-+U.;+P.>+U.A.6.,+'+)+!+  ",
"  ~+{+]+^+..+.++M.i.6.A.F./+(+_+:+<+[+}+|+|+;+P.P.O.A.1+2+r.3+  ",
"  4+5+6+7++.~.M.].y.A.U.P.8+9+0+a+b+c+/+/+d+d+|+;+P.O.e+f+g+h+  ",
"  i+j+k+l+#.{.5.i.z.j.P.;+m+n+o+p+q+r+s+t+/+u+v+|+;+P.w+x+y+z+  ",
"  A+B+C+D+E+3.].6.j.U.;+/+F+G+H+I+J+K+L+M+M+N+/+d+|+;+5.O+P+Q+  ",
"  R+S+T+U+++M.i.y.U.>+;+|+V+W+X+N+Y+(+Z+`+ @M+t+/+|+.@+@@@#@$@  ",
"    %@&@*@3.M.6.z.U.P.|+d+d+=@-@;@>@,@'@)@V+ @N+t+d+/+!@~@{@    ",
"    ]@^@/@(@4.6.z.O.P.|+d+t+M+>@_@:@<@[@}@|@>@M+t+d+1@2@3@4@    ",
"      5@P+6@7@6.z.O.P.|+d+t+M+>@8@9@0@<@a@b@;@M+c@d@e@f@g@      ",
"      h@i@j@k@F.z.O.P.|+d+t+M+>@_@9@l@m@9@n@>@M+s+7.o@p@q@      ",
"        r@s@t@u@j.U.P.|+v+/+c@-@>@8@v@n@8@w@-@x@y@z@A@B@        ",
"          C@D@E@F@G@P.;+|+/+t+N+-@;@;@_@;@-@9@H@I@J@K@          ",
"          L@M@N@O@P@<@c@;+d+G@t+c@M+Q@x@:@<@R@S@T@U@V@          ",
"            W@X@Y@Z@`@ #.#=@8@+#9@@#b@##H+$#%#&#*#=#            ",
"                -#;#>#,#'#)#!#~#{#]#^#/#,#(#_#:#                ",
"                  <#[#}#|#A@~@1#2#2#J@3#4#5#6#                  ",
"                          7#8#9#9#0#a#                          ",
"                                                                ",
"                                                                "};
